<svg width="88" height="75" fill="none" xmlns="http://www.w3.org/2000/svg"><path d="M24.581 0c-6.376 0-12.492 2.59-17 7.2C3.07 11.812.539 18.065.539 24.585c0 2.235.393 4.47.961 6.705h17.836l5.552-15.063c1.31-3.576 6.47-3.934 8.13 0l9.05 24.003 2.578-6.347c.569-1.475 2.099-2.593 3.978-2.593h38.381c.569-2.235.962-4.47.962-6.705 0-6.52-2.533-12.773-7.042-17.383C76.416 2.59 70.301 0 63.925 0c-8.131 0-15.3 4.157-19.672 10.46C39.882 4.157 32.713 0 24.58 0zM4.911 37.994c-1.16 0-2.272.471-3.092 1.31a4.521 4.521 0 00-1.28 3.16c0 1.185.46 2.322 1.28 3.16a4.323 4.323 0 003.091 1.31h10.666l24.306 24.584c4.37 4.023 4.37 4.023 8.742 0L72.93 46.934h10.666c1.16 0 2.271-.471 3.09-1.31a4.521 4.521 0 001.281-3.16c0-1.185-.46-2.322-1.28-3.16a4.323 4.323 0 00-3.091-1.31H50.373l-4.066 10.28c-1.748 4.515-6.775 3.89-8.393.135l-8.961-23.825L24.756 35c-.655 1.699-2.142 2.995-4.109 2.995H4.91z" fill="#EC5863"/></svg>